<mxfile host="Electron" modified="2023-05-09T00:44:45.501Z" agent="Mozilla/5.0 (Macintosh; Intel Mac OS X 10_15_7) AppleWebKit/537.36 (KHTML, like Gecko) draw.io/21.2.8 Chrome/112.0.5615.165 Electron/24.2.0 Safari/537.36" etag="VrwjvUo7FT8Qa-Jp-IcP" version="21.2.8" type="device">
  <diagram name="Page-1" id="5d7acffa-a066-3a61-03fe-96351882024d">
    <mxGraphModel dx="2040" dy="685" grid="1" gridSize="10" guides="1" tooltips="1" connect="1" arrows="1" fold="1" page="1" pageScale="1" pageWidth="1100" pageHeight="850" background="#ffffff" math="0" shadow="0">
      <root>
        <mxCell id="0" />
        <mxCell id="1" parent="0" />
        <mxCell id="AZiJ76leZRMekGIFPpnd-13" value="config" style="swimlane;html=1;fontStyle=0;childLayout=stackLayout;horizontal=1;startSize=26;fillColor=#e0e0e0;horizontalStack=0;resizeParent=1;resizeLast=0;collapsible=1;marginBottom=0;swimlaneFillColor=#ffffff;align=center;rounded=1;shadow=0;comic=0;labelBackgroundColor=none;strokeWidth=1;fontFamily=Verdana;fontSize=12" parent="1" vertex="1">
          <mxGeometry x="-1040" y="110" width="240" height="174" as="geometry" />
        </mxCell>
        <mxCell id="gZ2pxn1UFKeFwP35IxcN-5" value="&lt;ul style=&quot;line-height: 300%;&quot;&gt;&lt;li style=&quot;text-align: left;&quot;&gt;&lt;b&gt;&lt;font color=&quot;#22dd11&quot;&gt;Key&lt;/font&gt;&lt;/b&gt;:&amp;nbsp;&lt;span style=&quot;border-color: var(--border-color);&quot;&gt;destin=&lt;b&gt;r1&lt;/b&gt;&amp;nbsp;&lt;/span&gt;&lt;span style=&quot;border-color: var(--border-color);&quot;&gt;required_path&lt;/span&gt;&lt;/li&gt;&lt;li style=&quot;text-align: left;&quot;&gt;&lt;b&gt;&lt;font color=&quot;#2222dd&quot;&gt;Val&lt;/font&gt;&lt;/b&gt;:&amp;nbsp;&lt;span style=&quot;border-color: var(--border-color);&quot;&gt;remote_url=&lt;b&gt;ru1&lt;/b&gt; rev=&lt;b&gt;main&lt;/b&gt; setup=&lt;b&gt;s1&lt;/b&gt;&lt;/span&gt;&lt;/li&gt;&lt;/ul&gt;" style="text;strokeColor=default;fillColor=none;html=1;whiteSpace=wrap;verticalAlign=middle;overflow=hidden;labelPosition=center;verticalLabelPosition=middle;align=center;textDirection=ltr;spacingLeft=-36;spacingTop=-15;" parent="AZiJ76leZRMekGIFPpnd-13" vertex="1">
          <mxGeometry y="26" width="240" height="74" as="geometry" />
        </mxCell>
        <mxCell id="gZ2pxn1UFKeFwP35IxcN-6" value="&lt;ul style=&quot;line-height: 300%;&quot;&gt;&lt;li style=&quot;text-align: left;&quot;&gt;&lt;b&gt;&lt;font color=&quot;#22dd11&quot;&gt;Key&lt;/font&gt;&lt;/b&gt;:&amp;nbsp;&lt;span style=&quot;border-color: var(--border-color);&quot;&gt;destin=&lt;b&gt;r2&lt;/b&gt;&amp;nbsp;&lt;/span&gt;&lt;span style=&quot;border-color: var(--border-color);&quot;&gt;required_path&lt;/span&gt;&lt;/li&gt;&lt;li style=&quot;text-align: left;&quot;&gt;&lt;b&gt;&lt;font color=&quot;#2222dd&quot;&gt;Val&lt;/font&gt;&lt;/b&gt;:&amp;nbsp;&lt;span style=&quot;border-color: var(--border-color);&quot;&gt;remote_url=&lt;b&gt;ru2&lt;/b&gt;&amp;nbsp;rev=&lt;b&gt;main&lt;/b&gt; setup=&lt;b&gt;s1&lt;/b&gt;&lt;/span&gt;&lt;/li&gt;&lt;/ul&gt;" style="text;strokeColor=default;fillColor=none;html=1;whiteSpace=wrap;verticalAlign=middle;overflow=hidden;labelPosition=center;verticalLabelPosition=middle;align=center;textDirection=ltr;spacingLeft=-36;spacingTop=-15;" parent="AZiJ76leZRMekGIFPpnd-13" vertex="1">
          <mxGeometry y="100" width="240" height="74" as="geometry" />
        </mxCell>
        <mxCell id="gZ2pxn1UFKeFwP35IxcN-7" value="config_lock" style="swimlane;html=1;fontStyle=0;childLayout=stackLayout;horizontal=1;startSize=26;fillColor=#e0e0e0;horizontalStack=0;resizeParent=1;resizeLast=0;collapsible=1;marginBottom=0;swimlaneFillColor=#ffffff;align=center;rounded=1;shadow=0;comic=0;labelBackgroundColor=none;strokeWidth=1;fontFamily=Verdana;fontSize=12" parent="1" vertex="1">
          <mxGeometry x="-720" y="110" width="240" height="174" as="geometry" />
        </mxCell>
        <mxCell id="gZ2pxn1UFKeFwP35IxcN-8" value="&lt;ul style=&quot;line-height: 300%;&quot;&gt;&lt;li style=&quot;text-align: left;&quot;&gt;&lt;b&gt;&lt;font color=&quot;#22dd11&quot;&gt;Key&lt;/font&gt;&lt;/b&gt;:&amp;nbsp;&lt;span style=&quot;border-color: var(--border-color);&quot;&gt;destin=&lt;b&gt;r1&lt;/b&gt;&amp;nbsp;&lt;/span&gt;&lt;span style=&quot;border-color: var(--border-color);&quot;&gt;required_path&lt;/span&gt;&lt;/li&gt;&lt;li style=&quot;text-align: left;&quot;&gt;&lt;b&gt;&lt;font color=&quot;#2222dd&quot;&gt;Val&lt;/font&gt;&lt;/b&gt;:&amp;nbsp;&lt;span style=&quot;border-color: var(--border-color);&quot;&gt;remote_url=&lt;b&gt;ru1&lt;/b&gt; rev=&lt;b&gt;main&lt;/b&gt; setup=&lt;b&gt;s1&lt;/b&gt;&lt;/span&gt;&lt;/li&gt;&lt;/ul&gt;" style="text;strokeColor=default;fillColor=none;html=1;whiteSpace=wrap;verticalAlign=middle;overflow=hidden;labelPosition=center;verticalLabelPosition=middle;align=center;textDirection=ltr;spacingLeft=-36;spacingTop=-15;" parent="gZ2pxn1UFKeFwP35IxcN-7" vertex="1">
          <mxGeometry y="26" width="240" height="74" as="geometry" />
        </mxCell>
        <mxCell id="gZ2pxn1UFKeFwP35IxcN-9" value="&lt;ul style=&quot;line-height: 300%;&quot;&gt;&lt;li style=&quot;text-align: left;&quot;&gt;&lt;b&gt;&lt;font color=&quot;#22dd11&quot;&gt;Key&lt;/font&gt;&lt;/b&gt;:&amp;nbsp;&lt;span style=&quot;border-color: var(--border-color);&quot;&gt;destin=&lt;b&gt;r2&lt;/b&gt;&amp;nbsp;&lt;/span&gt;&lt;span style=&quot;border-color: var(--border-color);&quot;&gt;required_path&lt;/span&gt;&lt;/li&gt;&lt;li style=&quot;text-align: left;&quot;&gt;&lt;b&gt;&lt;font color=&quot;#2222dd&quot;&gt;Val&lt;/font&gt;&lt;/b&gt;:&amp;nbsp;&lt;span style=&quot;border-color: var(--border-color);&quot;&gt;remote_url=&lt;b&gt;ru2&lt;/b&gt;&amp;nbsp;rev=&lt;b&gt;main&lt;/b&gt; setup=&lt;b&gt;s1&lt;/b&gt;&lt;/span&gt;&lt;/li&gt;&lt;/ul&gt;" style="text;strokeColor=default;fillColor=none;html=1;whiteSpace=wrap;verticalAlign=middle;overflow=hidden;labelPosition=center;verticalLabelPosition=middle;align=center;textDirection=ltr;spacingLeft=-36;spacingTop=-15;" parent="gZ2pxn1UFKeFwP35IxcN-7" vertex="1">
          <mxGeometry y="100" width="240" height="74" as="geometry" />
        </mxCell>
        <mxCell id="gZ2pxn1UFKeFwP35IxcN-12" value="&lt;font style=&quot;font-size: 23px;&quot;&gt;&lt;b&gt;scenario 1:&amp;nbsp; all clear&lt;/b&gt;&lt;/font&gt;" style="text;html=1;strokeColor=none;fillColor=none;align=center;verticalAlign=middle;whiteSpace=wrap;rounded=0;" parent="1" vertex="1">
          <mxGeometry x="-890" y="40" width="260" height="30" as="geometry" />
        </mxCell>
        <mxCell id="gZ2pxn1UFKeFwP35IxcN-13" value="" style="endArrow=classic;startArrow=classic;html=1;rounded=0;exitX=1;exitY=0.25;exitDx=0;exitDy=0;strokeColor=#22DD11;entryX=0;entryY=0.25;entryDx=0;entryDy=0;" parent="1" source="gZ2pxn1UFKeFwP35IxcN-5" target="gZ2pxn1UFKeFwP35IxcN-8" edge="1">
          <mxGeometry width="50" height="50" relative="1" as="geometry">
            <mxPoint x="-680" y="130" as="sourcePoint" />
            <mxPoint x="-660" y="110" as="targetPoint" />
          </mxGeometry>
        </mxCell>
        <mxCell id="gZ2pxn1UFKeFwP35IxcN-14" value="" style="endArrow=classic;startArrow=classic;html=1;rounded=0;exitX=1;exitY=0.25;exitDx=0;exitDy=0;strokeColor=#22DD11;entryX=0;entryY=0.25;entryDx=0;entryDy=0;" parent="1" source="gZ2pxn1UFKeFwP35IxcN-6" target="gZ2pxn1UFKeFwP35IxcN-9" edge="1">
          <mxGeometry width="50" height="50" relative="1" as="geometry">
            <mxPoint x="-790" y="165" as="sourcePoint" />
            <mxPoint x="-630" y="165" as="targetPoint" />
          </mxGeometry>
        </mxCell>
        <mxCell id="gZ2pxn1UFKeFwP35IxcN-15" value="" style="endArrow=classic;startArrow=classic;html=1;rounded=0;exitX=1;exitY=0.75;exitDx=0;exitDy=0;strokeColor=#2222DD;entryX=0;entryY=0.75;entryDx=0;entryDy=0;" parent="1" source="gZ2pxn1UFKeFwP35IxcN-5" target="gZ2pxn1UFKeFwP35IxcN-8" edge="1">
          <mxGeometry width="50" height="50" relative="1" as="geometry">
            <mxPoint x="-790" y="196" as="sourcePoint" />
            <mxPoint x="-634" y="198" as="targetPoint" />
          </mxGeometry>
        </mxCell>
        <mxCell id="gZ2pxn1UFKeFwP35IxcN-16" value="" style="endArrow=classic;startArrow=classic;html=1;rounded=0;strokeColor=#2222DD;entryX=0;entryY=0.75;entryDx=0;entryDy=0;exitX=1;exitY=0.75;exitDx=0;exitDy=0;" parent="1" source="gZ2pxn1UFKeFwP35IxcN-6" target="gZ2pxn1UFKeFwP35IxcN-9" edge="1">
          <mxGeometry width="50" height="50" relative="1" as="geometry">
            <mxPoint x="-770" y="260" as="sourcePoint" />
            <mxPoint x="-690" y="270" as="targetPoint" />
          </mxGeometry>
        </mxCell>
      </root>
    </mxGraphModel>
  </diagram>
</mxfile>
